# xmcd
#
# Track frame offsets: 
#        151
#        21574
#        44768
#        56101
#        79856
#        90192
#        114212
#        126551
#        156837
#        171968
#        196605
#        210789
#        236051
#        252002
#        269220
#        282721
#        301127
#        314272
#        340832
#
# Disc length: 4785 seconds
#
# Revision: 0
# Processed by: cddbd v1.5.1PL0 Copyright (c) Steve Scherf et al.
# Submitted via: ExactAudioCopy v0.95b2
#
DISCID=1212af13
DTITLE=John Lee Hooker - De Luxe Collection
DYEAR=1900
DGENRE=Blues
TTITLE0=Chill Out (Things Gonna Change) - feat. Carlos Santana
TTITLE1=The Healing Game - feat. Van Morrison
TTITLE2=Boom Boom
TTITLE3=Annie Mae
TTITLE4=Maude
TTITLE5=Ain't No Big Thing
TTITLE6=Drug Store Woman
TTITLE7=Don't Look Back
TTITLE8=One Bourbon, One Scotch, One Beer
TTITLE9=Blues Before Sunrise
TTITLE10=Kiddio
TTITLE11=Travellin' Blues
TTITLE12=I Love You Honey
TTITLE13=Frisco Blues
TTITLE14=Think Twice Before You Go - feat. Los Lobos
TTITLE15=Red House
TTITLE16=Spellbound
TTITLE17=Rainy Day
TTITLE18=We'll Meet Again
EXTD=
EXTT0=
EXTT1=
EXTT2=
EXTT3=
EXTT4=
EXTT5=
EXTT6=
EXTT7=
EXTT8=
EXTT9=
EXTT10=
EXTT11=
EXTT12=
EXTT13=
EXTT14=
EXTT15=
EXTT16=
EXTT17=
EXTT18=
PLAYORDER=
